<?xml version="1.0" encoding="utf-8"?>
<!-- Generator: Adobe Illustrator 16.0.0, SVG Export Plug-In . SVG Version: 6.00 Build 0)  -->
<!DOCTYPE svg PUBLIC "-//W3C//DTD SVG 1.1//EN" "http://www.w3.org/Graphics/SVG/1.1/DTD/svg11.dtd">
<svg version="1.1" id="Layer_1" xmlns="http://www.w3.org/2000/svg" xmlns:xlink="http://www.w3.org/1999/xlink" x="0px" y="0px"
	 width="862.844px" height="327.318px" viewBox="0 -0.018 862.844 327.318" enable-background="new 0 -0.018 862.844 327.318"
	 xml:space="preserve">
<circle fill="#FFA64D" cx="678.567" cy="258.716" r="17.662"/>
<path opacity="0.5" fill="#FFA64D" enable-background="new    " d="M143.1,194.201C161,176,389.5,4.1,393.4,8
	c3,3-166.9,234.201-184.9,252.3s-47.2,17.9-65.2-0.301C125.2,241.8,125.2,212.3,143.1,194.201z"/>
<path opacity="0.3" fill="#FFA64D" enable-background="new    " d="M153.2,186.1c22-12.899,245.399-101.5,248.1-96.7
	c2.101,3.7-180,164.801-202.1,177.6c-22,12.801-50.1,5.101-62.8-17.299C123.7,227.5,131.2,199,153.2,186.1z"/>
<path opacity="0.3" fill="#FFA64D" enable-background="new    " d="M216.5,249.9C229.3,227.701,317.1,2.7,312.4,0
	c-3.7-2.1-163.5,181.4-176.3,203.6c-12.7,22.2-5,50.5,17.2,63.2C175.4,279.6,203.7,272,216.5,249.9z"/>
<path opacity="0.2" fill="#FFA64D" enable-background="new    " d="M163.9,181.4c24.6-6.699,230.9-32.2,232.4-26.9
	c1.101,4.1-184.2,110.3-208.8,117c-24.6,6.701-49.8-8.1-56.3-33C124.7,213.6,139.4,188.1,163.9,181.4z"/>
<path opacity="0.1" fill="#FFA64D" enable-background="new    " d="M163.9,181.4c24.6-6.699,191.3,31,192.7,36.2
	c1.101,4.101-144.6,47.101-169.2,53.8c-24.6,6.7-49.8-8.1-56.3-33C124.7,213.6,139.4,188.1,163.9,181.4z"/>
<path opacity="0.1" fill="#FFA64D" enable-background="new    " d="M221.2,239c6.7-24.799-30.8-192.7-36.1-194.1
	c-4.1-1.1-46.7,145.6-53.3,170.4c-6.6,24.8,8.1,50.199,32.8,56.6C189.2,278.5,214.6,263.8,221.2,239z"/>
<path opacity="0.2" fill="#FFA64D" enable-background="new    " d="M221.2,239c6.7-24.799,31.9-232.6,26.7-234
	c-4.1-1.1-109.4,185.5-116.1,210.4c-6.6,24.801,8.1,50.2,32.8,56.6C189.2,278.6,214.6,263.8,221.2,239z"/>
<path fill="#333333" d="M191,170.8c-10.7,0-23.8,2.9-34.5,14c0-2.9,0.8-6.6,0.8-7.801c0-2.1-1.6-0.799-2.1-3.699h-18.9L110,323.6
	c0,1.2,1.2,2.5,2.1,3.7h18.5l10.7-56.7c8.2,9.899,17.7,12.3,26.3,12.3c41.9,0,60.4-42.699,60.4-72.699
	C228,188,217.3,170.8,191,170.8z M168,263.6c-13.6,0-21.4-9.399-21.4-21.399c0-1.201,1.6-11.101,2.5-16.801
	c2.9-21.8,17.3-35.3,35.3-35.3c15.6,0,21,10.7,21,23C205.4,230.701,195.1,263.6,168,263.6z"/>
<path fill="#333333" d="M105.2,133.4c-7.8-2.5-18.9-3.7-27.1-3.7c-23.8,0-60.4,11.9-60.4,47.7c0,35.7,57.1,37.801,57.1,61.6
	c0,19.301-18.9,23.801-32,23.801c-8.6,0-19.3-3.301-27.5-7.4c-2.9-1.199-6.2-4.9-7-4.9c-1.2,0-3.3,1.201-4.5,1.201L0,272.6
	c7,6.2,27.5,10.3,37.8,10.3c18.1,0,47.7-5.8,57.1-32c1.6-5.3,3.3-11.1,3.3-15.6c0-36.1-57.1-39.4-57.1-62.4
	c0-19.3,20.5-22.6,32.5-22.6c7.4,0,10.7-0.4,19.7,2.9c2.9,0.8,7.8,5.3,9,5.3c0.8,0,2.9-1.2,3.7-2.1c1.6-6.2,4.1-18.9,4.1-19.7
	C110.1,135,105.2,133.4,105.2,133.4z"/>
<path fill="#333333" d="M299.5,170.8c-13.6,0-24.2,2.1-38.6,10.699c0,0.801,0,1.601-0.4,2.5c-0.8,4.9-2.5,13.601-2.5,14.4
	c0,1.2,2.9,3.301,3.7,3.301c1.2,0,8.6-5.801,13.6-7.801c2.9-1.6,7-2.9,10.3-3.3c2.9-0.8,8.6-0.8,9.4-0.8c6.2,0,14,0.4,15.6,10.699v9
	c-0.399,0.4-0.399,1.201-0.8,1.201C287.6,216,257.6,209.5,242,239.5c-2.5,4.9-3.7,12.301-3.7,17.701c0,19.299,16,25.899,30.4,25.899
	c9.9,0,20.5-3.7,30.399-12.3c0,2.9-0.399,4.9-0.399,5.8c0,1.2,1.2,2.899,2.5,4.101h18.5c1.2-14,13.1-72.701,13.1-80.101
	C332.7,178.201,318.4,170.8,299.5,170.8z M306.4,230.3c-2.5,21-16.8,33.3-31.601,33.3c-7.4,0-13.6-2.899-13.6-11.101
	c0-22.6,26.7-19.699,38.6-22.199c1.601-0.4,4.5-0.4,6.601-0.801V230.3z"/>
<path fill="#333333" d="M416.5,171.201c-9,0-18.9,4.5-26.3,13.1c0.399-2.9,1.2-7,1.2-8.2c0-0.8-1.601-2.101-2.5-2.899H370
	l-18.1,103.5c0.399,1.199,1.6,2.5,2.5,3.699h18.5c2.899-16.8,4.699-34,8.6-50.1c2.8-11.6,11.1-39,29.6-39c0.801,0,4.9,0.4,7.4,1.199
	c0.8,0,1.2,1.601,2.5,1.601c0.8,0,3.3-1.2,4.1-2.101c1.2-5.299,3.301-16.399,3.301-17.299C428.4,171.6,418.2,171.201,416.5,171.201z
	"/>
<path fill="#333333" d="M531.5,177.3c-0.4-1.2-0.8-2.9-1.6-4.1H508.1L461.7,215.1l-0.4-0.399l15.2-87.101c-0.4-1.2-1.6-2.5-2.5-3.7
	h-18.5l-27.1,153.2c0.8,1.2,2.1,2.5,2.899,3.3h18.5l8.2-45.199l33.7,45.199h23.8c0.8-1.199,1.6-2.9,2.1-4.1l-39.8-50.9L531.5,177.3z
	"/>
<g enable-background="new    ">
	<path fill="#595959" d="M566.181,226.535h8.337v11.499h8.24v7.617h-8.24v31.909h-8.337v-31.909h-6.563v-7.713h6.563V226.535z"/>
	<path fill="#595959" d="M588.651,238.034h8.336v22.278c0,6.868,3.019,10.301,9.056,10.301c2.683,0,4.807-0.918,6.372-2.755
		c1.563-1.836,2.348-4.352,2.348-7.546v-22.278h8.24v23.62c0,4.951-1.613,9.023-4.839,12.217c-3.227,3.194-7.348,4.791-12.361,4.791
		c-5.11,0-9.246-1.597-12.408-4.791c-3.162-3.193-4.743-7.361-4.743-12.505V238.034z"/>
	<path fill="#595959" d="M635.747,226.535h8.337v11.499h8.24v7.617h-8.24v31.909h-8.337v-31.909h-6.563v-7.713h6.563V226.535z"/>
	<path fill="#595959" d="M657.451,257.628c0-5.396,2.132-10.196,6.396-14.396c4.265-4.199,9.158-6.301,14.685-6.301
		c5.685,0,10.652,2.068,14.9,6.205c4.247,4.137,6.372,8.968,6.372,14.492c0,5.558-2.084,10.453-6.252,14.685
		c-4.169,4.233-8.983,6.349-14.445,6.349c-5.845,0-10.917-2.092-15.212-6.276C659.599,268.202,657.451,263.283,657.451,257.628z
		 M691.755,257.653c0-3.359-1.278-6.28-3.833-8.761c-2.556-2.479-5.59-3.72-9.103-3.72c-3.61,0-6.716,1.256-9.319,3.768
		c-2.604,2.514-3.904,5.513-3.904,9c0,3.329,1.317,6.242,3.952,8.737c2.636,2.496,5.726,3.744,9.271,3.744
		c3.449,0,6.468-1.279,9.055-3.841C690.461,264.021,691.755,261.044,691.755,257.653z"/>
	<path fill="#595959" d="M718.01,238.034v8.145c1.852-3.258,3.665-5.612,5.438-7.066c1.773-1.453,4.08-2.181,6.924-2.181
		c0.798,0,1.947,0.192,3.449,0.575l-2.539,8.337c-1.598-0.319-2.652-0.479-3.162-0.479c-2.812,0-5.167,0.982-7.067,2.946
		c-1.9,1.965-2.851,4.416-2.851,7.354v21.896h-8.336v-39.526H718.01z"/>
	<path fill="#595959" d="M739.857,225.049c0-1.725,0.638-3.217,1.916-4.479c1.277-1.261,2.795-1.893,4.552-1.893
		c1.725,0,3.217,0.632,4.479,1.893c1.262,1.263,1.893,2.755,1.893,4.479c0,1.758-0.631,3.258-1.893,4.504
		c-1.263,1.246-2.755,1.868-4.479,1.868c-1.757,0-3.274-0.622-4.552-1.868C740.495,228.307,739.857,226.807,739.857,225.049z
		 M742.205,238.034h8.24v39.526h-8.24V238.034z"/>
	<path fill="#595959" d="M796.2,238.034h8.336v39.526H796.2v-7.857c-4.057,5.973-9.088,8.959-15.092,8.959
		c-5.207,0-9.654-2.043-13.344-6.133c-3.688-4.088-5.533-9.055-5.533-14.9c0-5.524,1.86-10.355,5.581-14.492
		s8.089-6.205,13.104-6.205c3.097,0,6.036,0.847,8.815,2.539c2.778,1.694,4.935,3.898,6.468,6.612V238.034z M797.35,257.917
		c0-3.609-1.296-6.699-3.888-9.271c-2.592-2.57-5.695-3.857-9.312-3.857c-3.521,0-6.593,1.278-9.216,3.833
		c-2.624,2.556-3.936,5.558-3.936,9.007c0,3.737,1.279,6.916,3.84,9.534c2.56,2.62,5.663,3.929,9.312,3.929
		c3.616,0,6.72-1.301,9.312-3.904C796.054,264.584,797.35,261.494,797.35,257.917z"/>
	<path fill="#595959" d="M818.191,215.372h8.336v62.188h-8.336V215.372z"/>
	<path fill="#595959" d="M862.412,242.729l-5.558,4.887c-1.437-1.021-2.683-1.797-3.736-2.324c-1.055-0.526-2.3-0.79-3.737-0.79
		c-3.386,0-5.078,1.245-5.078,3.737c0,1.789,2.147,3.525,6.443,5.21c4.295,1.686,7.386,3.532,9.271,5.543
		c1.885,2.01,2.827,4.435,2.827,7.274c0,3.317-1.358,6.214-4.072,8.687c-2.716,2.473-5.91,3.709-9.582,3.709
		c-5.59,0-10.174-2.587-13.751-7.762l6.564-3.162c2.3,2.236,4.695,3.354,7.187,3.354c1.725,0,3.233-0.471,4.527-1.413
		c1.294-0.941,1.94-2.036,1.94-3.282c0-2.203-2.269-4.186-6.804-5.946s-7.674-3.542-9.414-5.347
		c-1.741-1.803-2.611-4.029-2.611-6.681c0-3.287,1.237-6.024,3.713-8.21c2.475-2.188,5.582-3.281,9.319-3.281
		C853.597,236.931,857.781,238.865,862.412,242.729z"/>
</g>
</svg>
